<?xml version="1.0" encoding="UTF-8"?>
<svg width="44.715mm" height="27.781mm" version="1.1" viewBox="0 0 44.715 27.781" xmlns="http://www.w3.org/2000/svg">
 <g transform="translate(-1.3229 -112.45)">
  <g>
   <path d="m1.3229 128.06h39.158l5.5562-1.7183-6.1401-1.8987h-24.151l4.3014-6.1563-18.725-5.8371z" fill="#5eb2db"/>
   <path d="m1.3229 128.06 18.126 6.5486-18.126 5.6222z" fill="#131340"/>
   <path d="m1.3229 128.06h39.158l-21.032 6.5486z" fill="#ef4137"/>
   <path d="m15.747 124.44 4.3014-6.1563 19.849 6.1563z" fill="#e5e5e5"/>
  </g>
  <g transform="matrix(.95232 0 0 1.0501 -8.9473 31.403)" fill="#fafaff" fill-opacity=".99973" stroke-width=".13116" aria-label="CYCT">
   <path d="m21.785 84.087s-0.10087-0.6599-0.70588-0.664c-0.75826-0.0051-0.8572 0.80001-0.8661 1.379-0.01073 0.69761 0.23898 1.3216 0.89014 1.3359 0.44601 0.0098 0.74084-0.8243 0.74084-0.8243l0.63375 0.24035s-0.16528 1.3957-1.4443 1.26c-1.2147-0.12893-1.5841-1.0882-1.5518-2.0907 0.03011-0.9346 0.40651-1.9194 1.5978-1.9498 1.2392-0.03166 1.3962 1.1353 1.3962 1.1353z" stroke-width=".13116"/>
   <path d="m15.977 82.838 0.82227 0.0026 0.82227 1.5338 0.82789-1.5103 0.7615 0.0021-1.2644 2.2063-0.01092 1.6532-0.66907 0.0058-0.0086-1.6998z"/>
   <path d="m22.838 82.841h2.7752v0.65595h-1.0364v3.2473h-0.68497v-3.2473h-1.0538z"/>
   <path d="m15.018 84.087s-0.10087-0.6599-0.70588-0.664c-0.75826-0.0051-0.8572 0.80001-0.8661 1.379-0.01073 0.69761 0.23898 1.3216 0.89014 1.3359 0.44601 0.0098 0.74084-0.8243 0.74084-0.8243l0.63375 0.24035s-0.16528 1.3957-1.4443 1.26c-1.2147-0.12893-1.5841-1.0882-1.5518-2.0907 0.03011-0.9346 0.40651-1.9194 1.5978-1.9498 1.2392-0.03166 1.3962 1.1353 1.3962 1.1353z" stroke-width=".13116"/>
  </g>
 </g>
</svg>
